<?xml version="1.0" encoding="UTF-8"?>
<svg xmlns="http://www.w3.org/2000/svg" xmlns:xlink="http://www.w3.org/1999/xlink" width="47" height="33" viewBox="0 0 47 33">
  <defs>
    <clipPath id="clip-path">
      <rect id="Rectangle_36" data-name="Rectangle 36" width="47" height="33" transform="translate(0 0)" fill="#f38221"></rect>
    </clipPath>
  </defs>
  <g id="Group_368" data-name="Group 368" transform="translate(-0.301 -0.454)">
    <g id="Group_249" data-name="Group 249" transform="translate(0.301 0.454)" clip-path="url(#clip-path)">
      <path id="Path_51" data-name="Path 51" d="M36.317,0,24.849,24.03a1.286,1.286,0,0,1-1.078.411c-.453,0-1.1-.137-1.168-.411L10.9,0H0Q2.03,4.723,4.095,9.423,7.717,17.685,10.052,22.7c2.143,4.6,3.5,6.821,4.061,7.352a10.391,10.391,0,0,0,4.3,2.6,18.123,18.123,0,0,0,5.25.611,18.05,18.05,0,0,0,5.283-.635,10.6,10.6,0,0,0,4.33-2.575c.541-.566,1.883-2.789,4.027-7.376Q39.87,17.151,43.289,9.4,45.995,3.245,47.317,0Z" transform="translate(-0.16 -0.27)" fill="#f38221"></path>
    </g>
  </g>
</svg>
